#!OML:ASF X:\für Bonn\!DataBase\2005_08_11_Bastian_Final\c3d\Bastian.ASF
:FULLY-SPECIFIED
:DEGREES
191
root -21.5036 17.5245 0.477988 145.495 -74.4986 -152.458
lowerback 2.59629 -0.887292 1.06693
upperback 5.04819 -1.3923 1.83986
thorax 3.76459 -0.761639 1.28366
lowerneck 1.66292 -6.72171 3.16084
upperneck 19.5304 -12.1069 8.69385
head 6.05688 -5.57463 1.59546
rclavicle 2.23633e-015 -1.03368e-014
rhumerus -11.5997 19.3281 -79.6473
rradius 93.589
rwrist -52.5429
rhand -10.0007 -1.79577
rfingers 7.12502
rthumb 15.983 -31.1564
lclavicle 2.23633e-015 -1.03368e-014
lhumerus -25.1121 -17.3938 91.0674
lradius 15.8461
lwrist 15.6238
lhand -11.4154 -6.86022
lfingers 7.12502
lthumb 14.6203 22.6044
rfemur -3.07656 -8.98044 22.6257
rtibia 37.5155
rfoot -12.304 -11.5024
rtoes -10.762
lfemur 0.903924 7.26215 -14.5497
ltibia 26.303
lfoot -13.1704 0.0382686
ltoes 0.121911
192
root -21.4972 17.5179 0.485918 146.15 -74.1995 -153.169
lowerback 2.5783 -1.01589 1.19614
upperback 5.12819 -1.57951 1.98785
thorax 3.8629 -0.857137 1.36133
lowerneck 1.67281 -6.68098 3.17495
upperneck 19.7154 -12.0428 8.44904
head 6.09591 -5.5533 1.51782
rclavicle -1.0635e-014 -1.70955e-014
rhumerus -13.0549 19.8229 -80.4676
rradius 92.7118
rwrist -53.4532
rhand -9.19983 -1.09878
rfingers 7.12502
rthumb 16.7541 -30.3959
lclavicle -1.0635e-014 -1.70955e-014
lhumerus -25.247 -17.3743 91.2808
lradius 15.7227
lwrist 15.5811
lhand -11.3529 -6.78405
lfingers 7.12502
lthumb 14.6805 22.6762
rfemur -2.93081 -9.12169 22.5831
rtibia 37.5732
rfoot -12.3335 -11.6289
rtoes -11.0952
lfemur 0.918593 7.24577 -14.6271
ltibia 26.4264
lfoot -13.3356 0.357026
ltoes 0.332705
193
root -21.4908 17.5135 0.493676 146.742 -73.8867 -153.814
lowerback 2.56563 -1.15685 1.33324
upperback 5.20576 -1.78494 2.15185
thorax 3.95673 -0.96213 1.45086
lowerneck 1.65526 -6.62464 3.15957
upperneck 19.9166 -11.9616 8.21339
head 6.14637 -5.52377 1.44682
rclavicle -2.2239e-014 3.47873e-014
rhumerus -14.4247 20.2705 -81.2715
rradius 91.7203
rwrist -54.2982
rhand -8.30303 -0.370468
rfingers 7.12502
rthumb 17.6172 -29.5923
lclavicle -2.2239e-014 3.47873e-014
lhumerus -25.3449 -17.128 91.4344
lradius 15.5189
lwrist 15.3503
lhand -11.273 -6.75335
lfingers 7.12502
lthumb 14.7575 22.7013
rfemur -2.77502 -9.25106 22.548
rtibia 37.5948
rfoot -12.3618 -11.743
rtoes -11.1539
lfemur 0.942737 7.25564 -14.6801
ltibia 26.5289
lfoot -13.4852 0.65742
ltoes 0.605576
194
root -21.4841 17.5097 0.501016 147.385 -73.568 -154.492
lowerback 2.52654 -1.29408 1.44557
upperback 5.29456 -1.98864 2.3292
thorax 4.07903 -1.06788 1.56698
lowerneck 1.62326 -6.56962 3.16818
upperneck 20.0646 -11.8631 7.94044
head 6.17811 -5.48688 1.36177
rclavicle 4.97086e-014 -1.27222e-014
rhumerus -15.7236 20.6099 -82.0231
rradius 90.6239
rwrist -54.9944
rhand -7.33905 0.415306
rfingers 7.12502
rthumb 18.5447 -28.7207
lclavicle 4.97086e-014 -1.27222e-014
lhumerus -25.3727 -16.6815 91.5431
lradius 15.2622
lwrist 14.9087
lhand -11.1631 -6.72434
lfingers 7.12502
lthumb 14.8634 22.7225
rfemur -2.62633 -9.34451 22.5053
rtibia 37.5895
rfoot -12.4193 -11.8523
rtoes -11.1002
lfemur 0.95188 7.2598 -14.7501
ltibia 26.6092
lfoot -13.6385 0.977373
ltoes 0.907011
195
root -21.4775 17.5049 0.508463 148.005 -73.2476 -155.178
lowerback 2.52252 -1.43475 1.56546
upperback 5.38604 -2.19653 2.48616
thorax 4.18407 -1.17528 1.65838
lowerneck 1.55728 -6.52302 3.22672
upperneck 20.2558 -11.7817 7.63394
head 6.22605 -5.4553 1.25501
rclavicle -1.36105e-014 6.4605e-015
rhumerus -16.967 20.8765 -82.7695
rradius 89.4723
rwrist -55.574
rhand -6.35409 1.15973
rfingers 7.12502
rthumb 19.4919 -27.8832
lclavicle -1.36105e-014 6.4605e-015
lhumerus -25.3866 -16.1545 91.598
lradius 14.9782
lwrist 14.3984
lhand -11.0559 -6.6725
lfingers 7.12502
lthumb 14.9667 22.7667
rfemur -2.43807 -9.43329 22.4431
rtibia 37.559
rfoot -12.4566 -11.9402
rtoes -11.0336
lfemur 1.00632 7.24779 -14.8306
ltibia 26.6758
lfoot -13.7862 1.31024
ltoes 1.14895
196
root -21.4704 17.5013 0.516041 148.665 -72.8978 -155.877
lowerback 2.48978 -1.56334 1.69388
upperback 5.48719 -2.39147 2.64994
thorax 4.31586 -1.27632 1.75099
lowerneck 1.41809 -6.47109 3.27869
upperneck 20.4584 -11.6979 7.338
head 6.29128 -5.41904 1.14898
rclavicle 3.32933e-014 -4.87022e-014
rhumerus -18.065 21.0783 -83.4019
rradius 88.2885
rwrist -56.0472
rhand -5.37939 1.73837
rfingers 7.12502
rthumb 20.4289 -27.207
lclavicle 3.32933e-014 -4.87022e-014
lhumerus -25.2966 -15.261 91.5315
lradius 14.5973
lwrist 13.5651
lhand -10.8628 -6.69064
lfingers 7.12502
lthumb 15.1527 22.7346
rfemur -2.28391 -9.489 22.3921
rtibia 37.5158
rfoot -12.5276 -12.0413
rtoes -10.8564
lfemur 1.03649 7.25478 -14.9133
ltibia 26.7317
lfoot -13.9472 1.67178
ltoes 1.3269
197
root -21.463 17.4975 0.522822 149.299 -72.5412 -156.564
lowerback 2.47556 -1.69887 1.79309
upperback 5.58858 -2.59776 2.83279
thorax 4.44055 -1.38535 1.87977
lowerneck 1.32074 -6.41236 3.33286
upperneck 20.6314 -11.5892 7.00751
head 6.33711 -5.37561 1.03569
rclavicle 1.08136e-014 1.9133e-014
rhumerus -19.0941 21.2328 -83.9615
rradius 87.1284
rwrist -56.3845
rhand -4.41642 2.15212
rfingers 7.12502
rthumb 21.354 -26.6913
lclavicle 1.08136e-014 1.9133e-014
lhumerus -25.2122 -14.2447 91.4641
lradius 14.1893
lwrist 12.6064
lhand -10.7258 -6.738
lfingers 7.12502
lthumb 15.2846 22.6772
rfemur -2.11753 -9.52287 22.3458
rtibia 37.465
rfoot -12.5914 -12.1598
rtoes -10.8277
lfemur 1.08722 7.33263 -14.9761
ltibia 26.7766
lfoot -14.0763 1.95538
ltoes 1.64507
198
root -21.455 17.4934 0.529519 149.945 -72.1504 -157.265
lowerback 2.47971 -1.8285 1.90856
upperback 5.69008 -2.79715 3.01433
thorax 4.55501 -1.49073 1.99865
lowerneck 1.18715 -6.33986 3.33028
upperneck 20.8327 -11.4804 6.74522
head 6.40561 -5.33043 0.950107
rclavicle -1.01318e-014 -1.87852e-014
rhumerus -20.0076 21.3315 -84.4598
rradius 85.9123
rwrist -56.707
rhand -3.44014 2.4404
rfingers 7.12502
rthumb 22.2915 -26.2938
lclavicle -1.01318e-014 -1.87852e-014
lhumerus -25.0996 -13.0983 91.3577
lradius 13.7377
lwrist 11.5069
lhand -10.6259 -6.78667
lfingers 7.12502
lthumb 15.3809 22.6212
rfemur -1.9511 -9.5096 22.3057
rtibia 37.4009
rfoot -12.6807 -12.2692
rtoes -10.4537
lfemur 1.13878 7.38847 -15.0442
ltibia 26.8213
lfoot -14.2161 2.28649
ltoes 1.98
199
root -21.4469 17.4903 0.53579 150.651 -71.7553 -158.019
lowerback 2.46493 -1.95161 2.0068
upperback 5.80246 -2.98966 3.18144
thorax 4.69235 -1.5932 2.11127
lowerneck 1.025 -6.26618 3.35005
upperneck 21.0216 -11.3733 6.50205
head 6.4756 -5.28312 0.865761
rclavicle 2.44381e-014 -1.07344e-014
rhumerus -20.8746 21.3786 -84.9283
rradius 84.7732
rwrist -57.0301
rhand -2.6073 2.60254
rfingers 7.12502
rthumb 23.0908 -26.0339
lclavicle 2.44381e-014 -1.07344e-014
lhumerus -24.9753 -11.9279 91.2183
lradius 13.3028
lwrist 10.4266
lhand -10.5144 -6.86999
lfingers 7.12502
lthumb 15.4883 22.5296
rfemur -1.79791 -9.50318 22.2378
rtibia 37.3313
rfoot -12.8002 -12.3489
rtoes -10.1793
lfemur 1.18904 7.47192 -15.1344
ltibia 26.8573
lfoot -14.3547 2.61029
ltoes 2.21097
200
root -21.4379 17.4868 0.542434 151.264 -71.3372 -158.677
lowerback 2.4743 -2.08462 2.12585
upperback 5.91224 -3.19859 3.37931
thorax 4.81562 -1.70488 2.24471
lowerneck 0.88751 -6.17685 3.29802
upperneck 21.1755 -11.2378 6.28651
head 6.53451 -5.22722 0.804823
rclavicle 2.4202e-014 -1.66979e-014
rhumerus -21.6561 21.4756 -85.3209
rradius 83.6639
rwrist -57.4654
rhand -1.92443 2.65368
rfingers 7.12502
rthumb 23.7459 -25.8992
lclavicle 2.4202e-014 -1.66979e-014
lhumerus -24.8508 -10.5613 91.0567
lradius 12.8733
lwrist 9.22611
lhand -10.3781 -6.93207
lfingers 7.12502
lthumb 15.6196 22.4573
rfemur -1.65352 -9.44541 22.2155
rtibia 37.2508
rfoot -12.9453 -12.4772
rtoes -9.77061
lfemur 1.23884 7.50483 -15.2072
ltibia 26.8889
lfoot -14.5179 2.98275
ltoes 2.3923
201
root -21.4288 17.484 0.548818 151.926 -70.9251 -159.39
lowerback 2.48303 -2.22405 2.21798
upperback 6.0289 -3.41739 3.56553
thorax 4.94862 -1.82277 2.38063
lowerneck 0.745759 -6.0743 3.23205
upperneck 21.3198 -11.0873 6.09975
head 6.59342 -5.16391 0.755964
rclavicle 8.98755e-014 -5.88403e-014
rhumerus -22.3861 21.5819 -85.6776
rradius 82.6352
rwrist -58.047
rhand -1.40549 2.56364
rfingers 7.12502
rthumb 24.2435 -25.9237
lclavicle 8.98755e-014 -5.88403e-014
lhumerus -24.6926 -8.97749 90.8186
lradius 12.4008
lwrist 7.87721
lhand -10.2307 -7.03424
lfingers 7.12502
lthumb 15.7615 22.344
rfemur -1.51022 -9.42718 22.1495
rtibia 37.1619
rfoot -13.1186 -12.5463
rtoes -9.3212
lfemur 1.28885 7.63298 -15.2866
ltibia 26.9173
lfoot -14.6498 3.27203
ltoes 2.7359
202
root -21.4191 17.4802 0.555064 152.486 -70.4838 -159.992
lowerback 2.51255 -2.35429 2.34393
upperback 6.14204 -3.62644 3.77187
thorax 5.06663 -1.9358 2.51974
lowerneck 0.599148 -5.97961 3.20489
upperneck 21.4477 -10.9308 5.84919
head 6.64233 -5.0992 0.681689
rclavicle 4.06515e-014 -2.90226e-014
rhumerus -23.0895 21.6975 -85.9762
rradius 81.6586
rwrist -58.6709
rhand -0.98329 2.43295
rfingers 7.12502
rthumb 24.6482 -25.9998
lclavicle 4.06515e-014 -2.90226e-014
lhumerus -24.7194 -7.81401 90.7497
lradius 12.2564
lwrist 6.95213
lhand -10.1055 -6.9479
lfingers 7.12502
lthumb 15.882 22.4208
rfemur -1.37136 -9.36734 22.1331
rtibia 37.0533
rfoot -13.3271 -12.6163
rtoes -8.7719
lfemur 1.33327 7.66948 -15.3463
ltibia 26.9548
lfoot -14.8291 3.64459
ltoes 3.20439
